<svg width="550" height="550" viewBox="0 0 550 550" fill="none" xmlns="http://www.w3.org/2000/svg">
<path d="M275.005 45.8328C244.91 45.8328 215.11 51.7603 187.306 63.277C159.502 74.7937 134.239 91.674 112.959 112.954C69.9822 155.931 45.8379 214.221 45.8379 274.999C45.8379 376.291 111.609 462.229 202.588 492.708C214.046 494.541 217.713 487.437 217.713 481.249V442.52C154.234 456.27 140.713 411.812 140.713 411.812C130.171 385.229 115.275 378.124 115.275 378.124C94.4212 363.916 116.88 364.374 116.88 364.374C139.796 365.979 151.942 387.979 151.942 387.979C171.88 422.812 205.567 412.499 218.63 406.999C220.692 392.104 226.65 382.02 233.067 376.291C182.192 370.562 128.796 350.854 128.796 263.541C128.796 238.104 137.505 217.708 152.4 201.437C150.109 195.708 142.088 171.874 154.692 140.937C154.692 140.937 173.942 134.749 217.713 164.312C235.817 159.27 255.525 156.749 275.005 156.749C294.484 156.749 314.192 159.27 332.296 164.312C376.067 134.749 395.317 140.937 395.317 140.937C407.921 171.874 399.9 195.708 397.609 201.437C412.505 217.708 421.213 238.104 421.213 263.541C421.213 351.083 367.588 370.333 316.484 376.062C324.734 383.166 332.296 397.145 332.296 418.458V481.249C332.296 487.437 335.963 494.77 347.65 492.708C438.63 461.999 504.171 376.291 504.171 274.999C504.171 244.905 498.244 215.105 486.727 187.301C475.21 159.497 458.33 134.234 437.05 112.954C415.77 91.674 390.507 74.7937 362.703 63.277C334.899 51.7603 305.099 45.8328 275.005 45.8328Z" fill="black"/>
</svg>
